<?xml version="1.0" encoding="iso-8859-1"?>
<!-- Generator: Adobe Illustrator 19.0.0, SVG Export Plug-In . SVG Version: 6.00 Build 0)  -->
<svg version="1.1" id="Layer_1" xmlns="http://www.w3.org/2000/svg" xmlns:xlink="http://www.w3.org/1999/xlink" x="0px" y="0px"
	 viewBox="0 0 508 508" style="enable-background:new 0 0 508 508;" xml:space="preserve">
<path style="fill:#00B2DE;" d="M506,378.8c0,68.8-54.4,125.2-123.2,125.2H133.2C64.4,504,10,447.6,10,378.8V129.2
	C10,60.4,64.4,4,133.2,4h249.6C451.6,4,506,60.4,506,129.2V378.8z"/>
<path style="fill:#FFFFFF;" d="M263.6,290c-8.8,0-15.6-22.8-25.2-62c-10.8-41.2-10.4-114.8-53.2-106.4c-40.4,8-93.6,70.8-93.6,70.8
	l12.8,16.4c0,0,26-20.4,34.8-10.4c8.8,10.4,42,134,52.8,156.8c9.6,20,36.4,46.4,65.6,27.6s126.8-101.6,144-199.2
	c17.6-97.6-117.2-77.2-131.6,8c35.6-21.2,54.8,8.8,36.4,42.4C288.8,268,272,290,263.6,290"/>
<path d="M237.2,393.2c-3.6,0-7.2-0.4-10.8-1.6c-18-5.2-32-22-38-34.8c-5.2-10.8-14.8-42-25.2-75.2c-10-33.6-22.8-75.6-27.2-80.4
	s-20,3.6-29.2,10.8c-0.8,0.8-2,0.8-2.8,0.8c-1.2,0-2-0.8-2.8-1.6l-12.8-16.4c-1.2-1.6-1.2-3.6,0-5.2c2.4-2.8,54.4-64,95.6-72
	c9.2-1.6,17.2-0.4,23.6,4.4c17.6,12.4,23.2,44,28.4,74.8c2,10.8,3.6,21.2,5.6,30c5.2,20.8,14.8,59.2,21.6,59.2
	c4,0,17.2-11.2,40-53.6c8.4-16,8.8-31.6,0.8-39.2c-6.8-6.4-18.4-5.6-31.6,2.4c-1.2,0.8-3.2,0.8-4.4,0c-1.2-0.8-2-2.4-1.6-4
	c7.2-42.8,40.8-66.4,67.6-73.6c2-0.4,4.4,0.8,4.8,2.8s-0.8,4.4-2.8,4.8c-22.4,6.4-50.8,25.2-59.6,58.4c13.6-5.6,25.2-4.8,33.6,2.8
	c10.8,10.4,11.2,30,0.8,48.8c-14.4,26.8-34.4,58.4-47.2,58.4c-11.6,0-18-20-29.2-65.2c-2.4-9.2-4-19.6-6-30.8
	c-4.8-27.6-10-59.2-24.8-69.6c-4.8-3.6-10.8-4.4-17.6-3.2c-34,6.8-78.8,55.6-89.2,67.2l8.4,10.8c8.4-6,28-18,37.2-7.2
	c4.8,5.6,14,35.2,28.8,83.2c9.6,31.6,19.6,64,24.8,74.4c6,12.4,18.4,26.4,33.2,30.4c9.2,2.4,18,0.8,26.8-4.8
	c25.6-16.4,124.8-98,142.4-196.4c0.4-2,2.4-3.6,4.8-3.2c2,0.4,3.6,2.4,3.2,4.8C388,285.6,286.4,369.2,260,386
	C252.8,390.8,245.2,393.2,237.2,393.2z"/>
<path d="M378.8,508H129.2C59.2,508,2,450,2,378.8V129.2C2,58,59.2,0,129.2,0h249.6C448.8,0,506,58,506,129.2v249.6
	C506,450,448.8,508,378.8,508z M129.2,8C63.6,8,10,62.4,10,129.2v249.6C10,445.6,63.6,500,129.2,500h249.6
	c65.6,0,119.2-54.4,119.2-121.2V129.2C498,62.4,444.4,8,378.8,8H129.2z"/>
<path d="M370,484H138c-62,0-112-51.2-112-114V138C26,75.2,76,24,138,24h233.2c2.4,0,4,1.6,4,4s-1.6,4-4,4H138
	C80.4,32,34,79.6,34,138v232c0,58.4,46.8,106.4,104.4,106.4h232c57.6,0,104.4-47.6,104.4-106.4V258c0-2.4,1.6-4,4-4s4,1.6,4,4v112
	C482.4,432.8,432,484,370,484z"/>
<path d="M446.8,65.2c-1.2,0-2-0.4-2.8-1.2c-20-20-48.4-32-76-32c-2.4,0-4-1.6-4-4s1.6-4,4-4c29.6,0,60,12.8,81.6,34.4
	c1.6,1.6,1.6,4,0,5.6C449.2,64.8,448,65.2,446.8,65.2z"/>
<path d="M478.4,234c-2.4,0-4-1.6-4-4v-59.2c0-2.4,1.6-4,4-4s4,1.6,4,4V230C482.4,232.4,480.4,234,478.4,234z"/>
<g>
</g>
<g>
</g>
<g>
</g>
<g>
</g>
<g>
</g>
<g>
</g>
<g>
</g>
<g>
</g>
<g>
</g>
<g>
</g>
<g>
</g>
<g>
</g>
<g>
</g>
<g>
</g>
<g>
</g>
</svg>
